Coordinates
version=1
nRows=19
nColumns=24
inDegrees=yes

Units are S.I. units (second, meters, Newtons, ...)
Angles are in degrees.

endheader
time	pelvis_tilt	pelvis_list	pelvis_rotation	pelvis_tx	pelvis_ty	pelvis_tz	hip_flexion_r	hip_adduction_r	hip_rotation_r	knee_angle_r	ankle_angle_r	subtalar_angle_r	mtp_angle_r	hip_flexion_l	hip_adduction_l	hip_rotation_l	knee_angle_l	ankle_angle_l	subtalar_angle_l	mtp_angle_l	lumbar_extension	lumbar_bending	lumbar_rotation
      3.43500000	     -6.21151074	     -7.88841089	     16.54975394	     -1.89120651	     -0.05400835	      0.44375372	     35.90040283	      0.75728192	     -8.63646000	    -19.92609908	     -4.39849632	      9.58905442	      9.20331607	     -8.46407406	     -9.98035368	      7.35324205	    -27.19443526	     -2.96883561	     38.01720684	     22.42236621	      6.02722117	      6.45981762	    -20.55853726
      3.44000000	     -6.33856129	     -8.36151757	     16.57912161	     -1.88183107	     -0.05498495	      0.44451537	     36.07668953	      1.36688172	     -8.50875716	    -20.60460236	     -5.34780981	      9.07971782	      9.23991314	     -7.80682511	    -10.76641250	      6.60757148	    -28.47536473	     -4.78982247	     38.77223048	     23.19720159	      6.48993462	      6.86111113	    -20.49578780
      3.44500000	     -6.41532740	     -8.81872404	     16.55956150	     -1.87252664	     -0.05579197	      0.44524686	     36.20054261	      2.03169658	     -8.22961105	    -21.27797324	     -6.27607948	      8.37825036	      9.16254607	     -7.20560088	    -11.50602260	      5.99947509	    -29.68519693	     -7.01426666	     39.15714796	     24.28887331	      6.87550186	      7.28937398	    -20.35997568
      3.45000000	     -6.53073032	     -9.30906887	     16.56507719	     -1.86338433	     -0.05662940	      0.44598891	     36.41249602	      2.69596996	     -8.05211635	    -22.02973105	     -6.96376088	      7.74018062	      8.80109780	     -6.43757556	    -12.28552345	      5.43803023	    -31.05903313	     -9.15983100	     39.59596109	     24.98576436	      7.29644307	      7.73318894	    -20.25669610
      3.45500000	     -6.67291618	     -9.83942241	     16.56964058	     -1.85428493	     -0.05745599	      0.44672379	     36.67345867	      3.40020930	     -7.89687747	    -22.80730172	     -7.48811189	      6.99254521	      8.32057610	     -5.56601067	    -13.08762025	      5.00066444	    -32.50857512	    -11.33921657	     39.93412855	     25.40628812	      7.75727277	      8.21559043	    -20.17203228
      3.46000000	     -6.79623087	    -10.34099519	     16.52865656	     -1.84529364	     -0.05818415	      0.44746783	     36.91502227	      4.13787847	     -7.60849333	    -23.60613841	     -7.87204519	      6.09028340	      7.63239837	     -4.70000709	    -13.82212154	      4.67409474	    -33.93456850	    -13.75086483	     39.97869002	     25.91587143	      8.16314411	      8.68019656	    -20.02076808
      3.46500000	     -6.89467954	    -10.82929104	     16.47177741	     -1.83641601	     -0.05883453	      0.44815246	     37.13248136	      4.88054455	     -7.34280738	    -24.42899038	     -8.03546949	      5.21824015	      6.83754594	     -3.82016689	    -14.51121965	      4.46482205	    -35.38424645	    -16.25759594	     39.82624394	     26.34188073	      8.52009441	      9.16158998	    -19.84819897
      3.47000000	     -6.96593602	    -11.30718530	     16.35743692	     -1.82766457	     -0.05942380	      0.44884435	     37.32898405	      5.65005814	     -7.09966576	    -25.29035477	     -7.93749497	      4.49122771	      5.80347525	     -2.94344292	    -15.16891670	      4.27672686	    -36.84618754	    -18.85377393	     39.52244040	     26.80452164	      8.80907544	      9.66551694	    -19.61925487
      3.47500000	     -7.03877364	    -11.78010334	     16.25772315	     -1.81895749	     -0.05995525	      0.44942831	     37.49241059	      6.41386371	     -6.85395336	    -26.11502462	     -7.66302562	      3.71849100	      4.81607115	     -2.02161320	    -15.76420671	      4.27641018	    -38.35031326	    -21.38446904	     39.00618262	     26.93326089	      9.10480185	     10.16963316	    -19.38001948
      3.48000000	     -7.05553635	    -12.17336925	     16.18425614	     -1.81049062	     -0.06032824	      0.44991303	     37.55455378	      7.10388477	     -6.63630929	    -26.88591752	     -7.37287154	      2.88519294	      4.12313940	     -1.10991584	    -16.22590191	      4.43922431	    -39.91316119	    -23.83502246	     38.26208472	     26.70131957	      9.27814122	     10.61563375	    -19.17691210
      3.48500000	     -7.12075099	    -12.62474034	     15.98850452	     -1.80196242	     -0.06077222	      0.45048890	     37.64599205	      7.90352679	     -6.37256147	    -27.64526187	     -6.73220853	      2.30733301	      3.01777829	     -0.15368144	    -16.72801944	      4.49759655	    -41.45115506	    -26.30265023	     37.46835675	     26.79440913	      9.50949913	     11.14118181	    -18.83932007
      3.49000000	     -7.07725297	    -12.96309118	     15.85173397	     -1.79368720	     -0.06096538	      0.45093258	     37.55753979	      8.58284201	     -6.22379877	    -28.31242392	     -6.15453650	      1.66181665	      2.38019922	      0.72932797	    -17.07068516	      4.71698722	    -43.04174471	    -28.60185340	     36.44554536	     26.40019221	      9.55566465	     11.57487712	    -18.54913503
      3.49500000	     -7.07592436	    -13.35178414	     15.60658301	     -1.78541162	     -0.06119626	      0.45145810	     37.47532267	      9.35060849	     -6.02026452	    -28.93108509	     -5.31575502	      1.32268352	      1.46240398	      1.65799226	    -17.44965544	      4.83181969	    -44.62515127	    -30.82161532	     35.37179510	     26.25764957	      9.64053065	     12.07931936	    -18.18397374
      3.50000000	     -6.92646075	    -13.76869665	     15.44247916	     -1.77725331	     -0.06120160	      0.45180494	     37.16478853	     10.11673312	     -6.00642613	    -29.33550107	     -4.71458459	      0.89248366	      1.37816666	      2.50648978	    -17.85706944	      5.05531315	    -46.27713236	    -32.66389985	     34.22379561	     25.69884733	      9.57252819	     12.65104233	    -17.85263332
      3.50500000	     -6.83673193	    -14.11580365	     15.19400667	     -1.76923828	     -0.06115130	      0.45225200	     36.84857017	     10.85218972	     -5.86190473	    -29.67550265	     -4.05999453	      0.53977126	      1.22489048	      3.40141226	    -18.14108943	      5.24697119	    -47.91140427	    -34.42820081	     32.94217721	     25.27806267	      9.50204470	     13.14584616	    -17.44757061
      3.51000000	     -6.77309438	    -14.35801367	     14.89492091	     -1.76144716	     -0.06101129	      0.45271990	     36.49666944	     11.49920056	     -5.64643982	    -29.98553422	     -3.27600117	      0.35419423	      0.90720743	      4.30053079	    -18.25185806	      5.45788419	    -49.51738919	    -36.07912006	     31.50134737	     25.08113776	      9.37480332	     13.53977287	    -16.92491164
      3.51500000	     -6.66897198	    -14.65574741	     14.57242108	     -1.75352965	     -0.06073225	      0.45324922	     36.02775879	     12.20699939	     -5.51778290	    -30.14571444	     -2.44271876	      0.34660770	      0.69896614	      5.16865033	    -18.45552782	      5.60089040	    -51.08913662	    -37.52384548	     30.15498422	     24.90038451	      9.23718851	     13.98569483	    -16.44357409
      3.52000000	     -6.52918884	    -14.96957509	     14.25140831	     -1.74579414	     -0.06037420	      0.45374569	     35.47743594	     12.92257890	     -5.40165489	    -30.19312701	     -1.71481719	      0.38810545	      0.68921687	      6.03803427	    -18.66217891	      5.75718619	    -52.69364913	    -38.56808699	     28.80147471	     24.79265068	      9.03368916	     14.46358021	    -15.93261721
      3.52500000	     -6.39282773	    -15.24652712	     13.90937025	     -1.73806320	     -0.05987529	      0.45426915	     34.85086162	     13.60435688	     -5.26716520	    -30.13226206	     -0.99618177	      0.50677349	      0.78540726	      6.90004335	    -18.82037488	      5.89087696	    -54.24594288	    -39.42488069	     27.44953938	     24.77212148	      8.81923266	     14.89645258	    -15.39334777
